<?xml version="1.0" encoding="UTF-8"?>
<svg id="a" data-name="Layer 1" xmlns="http://www.w3.org/2000/svg" width="646.773" height="676.846" viewBox="0 0 646.773 676.846">
  <path d="M468.56,307.763l-208.681-120.482c-12.817-7.4-28.839,1.85-28.839,16.65v240.964c0,14.8,16.022,24.05,28.839,16.65l208.681-120.482c12.817-7.4,12.817-25.9,0-33.301Z"/>
  <path d="M581.018,516.63c40.579-53.974,64.634-121.078,64.634-193.804C645.652,144.534,501.118,0,322.826,0S0,144.534,0,322.826s144.534,322.826,322.826,322.826c41.463,0,81.095-7.826,117.513-22.066l143.864,52.251c11.875,4.313,23.965-5.846,21.763-18.286l-24.947-140.921ZM219.762,566.865c-31.528-13.335-59.856-32.438-84.196-56.778-24.34-24.34-43.443-52.667-56.778-84.196-13.794-32.612-20.788-67.288-20.788-103.064s6.994-70.453,20.788-103.065c13.335-31.528,32.438-59.856,56.778-84.196s52.668-43.443,84.196-56.778c32.612-13.794,67.288-20.787,103.065-20.787s70.453,6.994,103.065,20.787c31.528,13.335,59.856,32.438,84.196,56.778s43.443,52.667,56.778,84.196c13.794,32.612,20.787,67.288,20.787,103.065s-6.994,70.453-20.787,103.064c-13.335,31.528-32.438,59.856-56.778,84.196-24.34,24.34-52.668,43.443-84.196,56.778-32.612,13.794-67.288,20.787-103.064,20.787s-70.453-6.994-103.064-20.787Z"/>
</svg>