<?xml version="1.0" encoding="UTF-8"?>
<svg id="Layer_2" data-name="Layer 2" xmlns="http://www.w3.org/2000/svg" viewBox="0 0 897 159">
  <defs>
    <style>
      .cls-1 {
        fill: #1c1c1c;
      }
    </style>
  </defs>
  <g id="Layer_1-2" data-name="Layer 1">
    <g>
      <path class="cls-1" d="M81.75,0c26.54,2.56,50,18.25,61.69,41.76,13.03,26.19,10.03,56.63-7.1,79.62l5.9,33.47c.35,1.99-1.31,3.09-2.45,4.15h-2.55l-33.92-12.5c-23.51,9.02-49.37,6.22-70.42-8.1C14.21,125.68,2.2,104.73,0,81.75v-12C3.78,32.19,32.19,3.73,69.75,0h12ZM138.28,75.7c0-34.34-27.84-62.18-62.18-62.18S13.93,41.36,13.93,75.7s27.84,62.18,62.18,62.18,62.18-27.84,62.18-62.18Z"/>
      <path class="cls-1" d="M897,75.94v7.05c-.84,5.43-2.21,10.69-5.09,15.55-9.02,15.22-27.97,21.19-44.14,13.84-3.39-1.54-5.91-3.68-8.77-6.57l-.03,40.18h-13.97s0-101,0-101l14.56-.09.17,9.39c13.22-15.82,37.09-13.34,49.41,1.79,4.76,5.85,6.78,12.67,7.87,19.86ZM882.53,79.51c0-12.29-9.97-22.26-22.26-22.26s-22.26,9.97-22.26,22.26,9.97,22.26,22.26,22.26,22.26-9.97,22.26-22.26Z"/>
      <polygon class="cls-1" points="495.58 45 510.7 44.96 486.68 114 472.35 114 453.91 64.88 435.22 115 420.91 115.04 397.37 44 412.73 44 428.55 93.93 446.68 45 461.38 45 479.25 93.88 495.58 45"/>
      <path class="cls-1" d="M766,114.01v-39.74c-.15-9.5-4.36-16.9-14.25-17.97-11.75-1.28-19.75,7.62-19.75,18.72l-.02,38.99-14.98.02V13s15,.04,15,.04l.05,40.18c8.4-9.65,19.85-11.65,31.24-8.26,12.51,4.18,17.63,15.56,17.71,28.27v40.77s-15,0-15,0Z"/>
      <path class="cls-1" d="M587,80c0,19.88-16.12,36-36,36s-36-16.12-36-36,16.12-36,36-36,36,16.12,36,36ZM566.09,94.79c8.13-9.06,7.65-22.86-.84-31.27-9.24-9.15-24.19-7.79-31.67,2.81-5.65,8.01-5.62,18.77.14,26.75,3.77,5.22,9.56,8.33,15.67,8.64s12.27-1.99,16.69-6.92Z"/>
      <path class="cls-1" d="M702.5,103.61c-7.85,12.82-25.14,14-38.26,10.07-7.32-2.49-13.25-7.23-17.06-14.14l13.28-6.93c3.78,6.4,10.11,10.11,17.5,10.11,3.13,0,6.15-.48,8.78-2.12,2.84-1.77,4.68-4.97,3.86-8.36-2.08-8.61-29.62-4.74-37.84-18.05-4.65-7.53-3.12-17.11,3.19-23.21,8.97-8.66,23.17-9.1,34.38-5.36,5.92,2.21,10.89,5.85,14.37,11.26l-12.28,6.78c-3.29-4.74-8.3-7.51-14.1-7.83-3.46-.19-6.88.18-9.79,2.05-2.72,1.74-4.47,5.09-3.11,8.21,3.42,7.81,31.33,4.52,38.33,19.05,2.88,5.97,2.23,12.82-1.23,18.48Z"/>
      <path class="cls-1" d="M333,80c0,19.88-16.12,36-36,36s-36-16.12-36-36,16.12-36,36-36,36,16.12,36,36ZM325.47,79.59c0-15.7-12.73-28.42-28.42-28.42s-28.42,12.73-28.42,28.42,12.73,28.42,28.42,28.42,28.42-12.73,28.42-28.42Z"/>
      <path class="cls-1" d="M640.02,59.05c-4.75.08-9.14-.08-13.65.24-5.66.41-10.21,3.81-11.87,9.19-.93,3.01-1.5,6.12-1.5,9.4l-.03,36.11h-14.97s0-69,0-69l14.81-.06.24,9.81c7.49-10.53,14.73-9.94,26.96-9.8l.02,14.1Z"/>
      <path class="cls-1" d="M236,114l-8,.07v-62.07s-12-.13-12-.13l.07-6.87,11.93-.03.18-11.7c.05-3.24.68-6.44,1.64-9.46,3.25-10.29,14.42-10.74,23.18-10.64v7.21s-14.71-.2-16.1,8.74c-.81,5.19-.67,10.35-.62,15.87h17.73v7l-18,.02v61.98Z"/>
      <rect class="cls-1" x="796" y="45" width="15" height="69"/>
      <path class="cls-1" d="M387,52.25c-3.92.05-7.25-.08-10.79.33-12.98,1.51-18.2,12.66-18.21,24.61l-.04,36.81-7.96-.05V45s8-.12,8-.12l.09,13.19c6.42-11.95,16.3-13.82,28.91-13.14v7.31Z"/>
      <rect class="cls-1" x="796" y="16" width="15" height="19"/>
      <path class="cls-1" d="M112.18,79.73l-49.5,28.35c-1.35.77-3.02.64-4.38-.05-.99-.5-2.3-1.92-2.3-3.57v-57.32c0-1.54,1.18-2.9,2.07-3.43,1.4-.83,3.15-1.02,4.61-.19l49.5,28.35c1.53.88,2.28,2.42,2.28,3.93s-.75,3.05-2.28,3.93Z"/>
    </g>
  </g>
</svg>