<svg xmlns="http://www.w3.org/2000/svg" version="1.1" xmlns:xlink="http://www.w3.org/1999/xlink" width="1000" height="1000"><metadata><rdf:RDF xmlns:rdf="http://www.w3.org/1999/02/22-rdf-syntax-ns#" xmlns:dc="http://purl.org/dc/elements/1.1/"><rdf:Description><dc:creator>RealFaviconGenerator</dc:creator><dc:source>https://realfavicongenerator.net</dc:source></rdf:Description></rdf:RDF></metadata><style>
    #light-icon {
      display: inline;
    }
    #dark-icon {
      display: none;
    }

    @media (prefers-color-scheme: dark) {
      #light-icon {
        display: none;
      }
      #dark-icon {
        display: inline;
      }
    }
  </style><g id="light-icon"><svg xmlns="http://www.w3.org/2000/svg" version="1.1" xmlns:xlink="http://www.w3.org/1999/xlink" width="1000" height="1000"><g><g transform="matrix(1.4774409540722704,0,0,1.4774409540722704,22.215540905907687,5.684341886080802e-14)"><svg xmlns="http://www.w3.org/2000/svg" id="a" data-name="Layer 1" width="646.773" height="676.846" viewBox="0 0 646.773 676.846"><path d="M468.56,307.763l-208.681-120.482c-12.817-7.4-28.839,1.85-28.839,16.65v240.964c0,14.8,16.022,24.05,28.839,16.65l208.681-120.482c12.817-7.4,12.817-25.9,0-33.301Z"></path><path d="M581.018,516.63c40.579-53.974,64.634-121.078,64.634-193.804C645.652,144.534,501.118,0,322.826,0S0,144.534,0,322.826s144.534,322.826,322.826,322.826c41.463,0,81.095-7.826,117.513-22.066l143.864,52.251c11.875,4.313,23.965-5.846,21.763-18.286l-24.947-140.921ZM219.762,566.865c-31.528-13.335-59.856-32.438-84.196-56.778-24.34-24.34-43.443-52.667-56.778-84.196-13.794-32.612-20.788-67.288-20.788-103.064s6.994-70.453,20.788-103.065c13.335-31.528,32.438-59.856,56.778-84.196s52.668-43.443,84.196-56.778c32.612-13.794,67.288-20.787,103.065-20.787s70.453,6.994,103.065,20.787c31.528,13.335,59.856,32.438,84.196,56.778s43.443,52.667,56.778,84.196c13.794,32.612,20.787,67.288,20.787,103.065s-6.994,70.453-20.787,103.064c-13.335,31.528-32.438,59.856-56.778,84.196-24.34,24.34-52.668,43.443-84.196,56.778-32.612,13.794-67.288,20.787-103.064,20.787s-70.453-6.994-103.064-20.787Z"></path></svg></g></g></svg></g><g id="dark-icon"><svg xmlns="http://www.w3.org/2000/svg" version="1.1" xmlns:xlink="http://www.w3.org/1999/xlink" width="1000" height="1000"><g><g transform="matrix(7.316359379572725,0,0,7.316359379572725,23.302604623939146,0)"><svg xmlns="http://www.w3.org/2000/svg" id="Layer_2" data-name="Layer 2" viewBox="0 0 130.31 136.68" width="130.31" height="136.68"><defs>
    <style>
      .cls-1 {
        fill: #dbdbdb;
      }
    </style>
  </defs><g id="Layer_1-2" data-name="Layer 1">
    <g>
      <path class="cls-1" d="M69.58,0c23.18,0,43.5,15.43,53.72,35.77,11.23,22.34,8.8,48.73-6.04,68.55l5.03,28.49c.22,1.25-.33,2.4-1.09,3.04-.94.79-2.13,1.06-3.35.61l-28.98-10.54c-21.68,8.43-46.04,4.73-64.17-9.63S-1.93,80.76.34,58.63C3.62,26.64,29.18,2.52,60.73,0h8.85ZM118.62,65.19c0-29.53-23.94-53.46-53.46-53.46S11.7,35.66,11.7,65.19s23.94,53.46,53.46,53.46,53.46-23.94,53.46-53.46Z"></path>
      <path class="cls-1" d="M95.55,68.43l-42.42,24.42c-1.21.7-2.57.77-3.82.1-.87-.46-2.08-1.55-2.08-3.02v-49.35c0-1.5.97-2.63,1.92-3.17,1.3-.75,2.68-.73,3.99.02l42.36,24.39c1.24.71,1.83,2,1.84,3.21s-.42,2.61-1.79,3.4Z"></path>
    </g>
  </g></svg></g></g></svg></g></svg>