<?xml version="1.0" encoding="UTF-8"?>
<svg id="Layer_2" data-name="Layer 2" xmlns="http://www.w3.org/2000/svg" viewBox="0 0 130.31 136.68">
  <defs>
    <style>
      .cls-1 {
        fill: #dbdbdb;
      }
    </style>
  </defs>
  <g id="Layer_1-2" data-name="Layer 1">
    <g>
      <path class="cls-1" d="M69.58,0c23.18,0,43.5,15.43,53.72,35.77,11.23,22.34,8.8,48.73-6.04,68.55l5.03,28.49c.22,1.25-.33,2.4-1.09,3.04-.94.79-2.13,1.06-3.35.61l-28.98-10.54c-21.68,8.43-46.04,4.73-64.17-9.63S-1.93,80.76.34,58.63C3.62,26.64,29.18,2.52,60.73,0h8.85ZM118.62,65.19c0-29.53-23.94-53.46-53.46-53.46S11.7,35.66,11.7,65.19s23.94,53.46,53.46,53.46,53.46-23.94,53.46-53.46Z"/>
      <path class="cls-1" d="M95.55,68.43l-42.42,24.42c-1.21.7-2.57.77-3.82.1-.87-.46-2.08-1.55-2.08-3.02v-49.35c0-1.5.97-2.63,1.92-3.17,1.3-.75,2.68-.73,3.99.02l42.36,24.39c1.24.71,1.83,2,1.84,3.21s-.42,2.61-1.79,3.4Z"/>
    </g>
  </g>
</svg>